# xmcd CD database file
#
# Track frame offsets:
#	183
#	17098
#	42065
#	54258
#	70910
#	92738
#	114635
#	128688
#	141580
#	155268
#	172488
#	183515
#	194700
#
# Disc length: 2724 seconds
#
# Revision: 0
# Processed by: cddbd v1.4PL0 Copyright (c) Steve Scherf et al.
# Submitted via: CDex 1.40Release
#
DISCID=bd0aa20d
DTITLE=collaps - collaps goes western
DYEAR=1993
DGENRE=Country
TTITLE0=peter the fatman
TTITLE1=mexican callgirl - don't walk away
TTITLE2=lonesome desperado
TTITLE3=howdie
TTITLE4=soundchaos
TTITLE5=maria
TTITLE6=london
TTITLE7=john wayne
TTITLE8=strangeland
TTITLE9=new day
TTITLE10=runing for my life
TTITLE11=cowboy john
TTITLE12=five guns (not sex pistols)
EXTD=YEAR: 1993 ID3G: 2
EXTT0=
EXTT1=
EXTT2=
EXTT3=
EXTT4=
EXTT5=
EXTT6=
EXTT7=
EXTT8=
EXTT9=
EXTT10=
EXTT11=
EXTT12=
PLAYORDER=
